<?xml version="1.0" standalone="no"?>
<!DOCTYPE svg PUBLIC "-//W3C//DTD SVG 20010904//EN"
 "http://www.w3.org/TR/2001/REC-SVG-20010904/DTD/svg10.dtd">
<svg version="1.0" xmlns="http://www.w3.org/2000/svg"
 width="688.000000pt" height="688.000000pt" viewBox="0 0 688.000000 688.000000"
 preserveAspectRatio="xMidYMid meet">
<metadata>
Created by potrace 1.14, written by Peter Selinger 2001-2017
</metadata>
<g transform="translate(0.000000,688.000000) scale(0.100000,-0.100000)"
fill="#000000" stroke="none">
<path d="M3345 6830 c-46 -23 -104 -83 -165 -170 -13 -19 -27 -37 -30 -40 -10
-10 -101 -184 -101 -195 0 -2 -9 -26 -20 -52 -12 -27 -22 -55 -24 -63 -2 -8
-13 -51 -24 -95 -32 -132 -44 -224 -44 -365 0 -82 10 -220 19 -264 3 -12 6
-32 8 -46 6 -39 25 -111 42 -155 9 -22 15 -41 14 -43 -3 -5 34 -97 48 -119 8
-13 11 -23 7 -23 -3 0 3 -13 14 -29 12 -16 21 -32 21 -36 0 -9 82 -130 92
-133 4 -2 8 -8 8 -14 0 -6 19 -32 43 -57 90 -98 119 -140 171 -246 53 -109 78
-182 92 -280 10 -65 10 -255 0 -325 -9 -68 -47 -204 -58 -208 -4 -2 -8 -10 -8
-18 0 -40 -111 -208 -203 -308 -76 -82 -211 -312 -203 -347 0 -3 -4 -12 -11
-20 -9 -11 -23 -52 -39 -111 -1 -5 -2 -9 -4 -10 -2 -4 -14 -56 -36 -166 -16
-77 -21 -319 -10 -417 5 -45 8 -65 22 -145 3 -14 10 -43 16 -65 6 -22 12 -45
14 -52 9 -45 52 -156 94 -237 51 -100 125 -205 209 -296 28 -30 50 -61 51 -67
0 -7 4 -13 8 -13 10 0 87 -143 108 -201 43 -121 57 -207 58 -359 0 -128 -6
-189 -29 -270 -8 -30 -17 -63 -19 -72 -14 -54 -92 -195 -151 -273 -76 -100
-95 -141 -90 -200 4 -53 17 -84 51 -124 85 -102 244 -90 339 24 22 26 45 53
50 59 53 57 183 308 190 366 0 3 3 10 6 15 4 6 10 26 15 45 4 19 9 40 10 45
13 45 26 105 29 130 2 17 7 59 11 95 16 135 4 348 -26 486 -46 207 -157 442
-269 567 -16 17 -47 52 -70 77 -22 25 -41 50 -41 57 0 6 -4 13 -9 15 -21 8
-110 189 -125 253 -2 6 -8 28 -14 50 -25 92 -35 312 -19 410 13 76 51 215 59
215 4 0 8 7 8 15 0 41 105 202 200 305 78 85 180 256 217 364 9 28 17 53 18
56 0 3 3 10 6 15 4 6 10 24 14 40 4 17 9 37 11 45 19 77 26 109 29 135 2 17 7
59 11 95 16 133 5 343 -26 485 -44 210 -159 447 -279 579 -20 21 -41 44 -46
50 -31 34 -75 95 -75 105 0 6 -3 11 -8 11 -4 0 -17 19 -29 43 -89 174 -115
280 -117 485 -2 200 44 376 134 517 11 17 23 36 26 43 7 14 35 49 67 83 9 10
17 24 17 29 0 6 4 10 8 10 16 0 34 54 38 108 7 121 -75 212 -200 219 -46 2
-71 -2 -101 -17z"/>
<path d="M1688 5707 c-90 -90 -179 -181 -198 -202 -91 -103 -118 -134 -155
-179 -22 -27 -44 -54 -50 -60 -84 -93 -365 -481 -365 -504 0 -6 -4 -12 -8 -14
-10 -4 -132 -205 -132 -218 0 -4 -5 -10 -11 -12 -5 -2 -11 -11 -12 -20 -2 -9
-7 -22 -13 -29 -18 -24 -71 -130 -114 -229 -23 -52 -50 -113 -60 -135 -23 -52
-75 -207 -106 -315 -30 -107 -31 -109 -39 -156 -4 -22 -8 -43 -9 -49 -7 -27
-17 -84 -21 -115 -2 -19 -7 -62 -11 -95 -4 -33 -7 -127 -7 -210 1 -213 10
-309 50 -505 8 -41 17 -86 19 -99 3 -14 7 -28 10 -33 3 -5 8 -21 10 -36 6 -34
64 -213 73 -227 4 -5 13 -28 20 -50 8 -22 34 -83 59 -135 25 -52 45 -97 44
-100 0 -3 5 -12 12 -20 7 -8 27 -41 44 -73 139 -256 399 -554 651 -747 25 -19
48 -38 49 -42 7 -15 34 -8 28 7 -5 15 -34 173 -42 230 -2 17 -6 41 -9 55 -2
14 -7 50 -11 80 -3 30 -8 66 -10 80 -1 14 -6 50 -9 80 -3 30 -8 69 -10 85 -20
163 -26 497 -11 610 4 33 9 74 11 90 10 92 88 361 137 475 55 126 157 327 250
491 212 376 245 472 253 739 2 58 4 110 5 115 1 6 2 12 1 15 -1 3 -4 39 -6 81
-1 41 -6 98 -10 125 -3 27 -8 69 -11 94 -3 25 -7 59 -10 75 -26 148 -47 258
-69 355 -14 63 -27 129 -29 145 -2 17 -7 37 -10 45 -21 56 -31 167 -31 330 1
164 6 217 31 343 3 15 3 27 0 27 -2 0 -78 -73 -168 -163z"/>
<path d="M5020 5869 c0 -3 5 -31 10 -62 17 -91 20 -117 25 -222 3 -55 5 -102
6 -105 1 -3 1 -8 1 -11 0 -3 -4 -43 -7 -89 -8 -107 -12 -131 -36 -240 -6 -25
-12 -60 -15 -78 -2 -18 -9 -42 -14 -53 -6 -10 -9 -19 -6 -19 2 0 -2 -28 -10
-62 -8 -35 -17 -78 -20 -98 -3 -19 -7 -41 -10 -49 -2 -8 -7 -30 -10 -50 -3
-20 -7 -47 -10 -61 -5 -26 -10 -56 -19 -130 -12 -90 -16 -137 -20 -215 -1 -44
-4 -84 -5 -90 -1 -5 -2 -12 -1 -15 1 -3 3 -54 6 -115 2 -60 6 -123 9 -140 7
-39 23 -114 29 -140 19 -73 84 -215 156 -338 28 -49 51 -91 51 -93 0 -2 11
-22 24 -43 53 -83 206 -383 221 -431 1 -3 8 -21 17 -40 30 -69 83 -234 88
-272 1 -4 6 -22 11 -40 11 -36 15 -56 22 -105 3 -17 7 -36 10 -40 26 -42 27
-560 2 -713 -3 -14 -7 -50 -10 -80 -8 -82 -15 -142 -20 -172 -9 -49 -14 -81
-34 -209 -11 -69 -23 -133 -27 -142 -3 -10 -2 -17 3 -17 8 0 52 28 63 39 3 3
25 22 50 41 118 90 290 264 400 405 30 39 58 72 62 73 5 2 8 7 8 11 0 4 33 57
74 119 67 101 203 360 221 421 4 13 14 40 23 60 9 20 16 38 17 41 1 3 13 42
28 87 38 118 68 236 83 333 3 19 7 46 10 60 31 158 36 550 8 690 -2 14 -7 43
-10 65 -3 22 -12 67 -20 100 -8 33 -16 69 -18 80 -2 11 -9 40 -16 65 -7 25
-12 47 -13 50 0 3 -11 33 -23 68 -13 34 -21 62 -19 62 2 0 -12 37 -32 83 -19
45 -36 89 -38 98 -2 9 -8 25 -14 35 -6 11 -31 64 -57 119 -55 116 -141 275
-215 395 -48 79 -214 325 -229 340 -3 3 -34 43 -70 90 -66 87 -77 101 -95 123
-87 104 -112 134 -120 143 -5 6 -44 49 -85 95 -107 120 -390 401 -390 388z"/>
<path d="M2126 3195 c-9 -14 -21 -35 -26 -48 -6 -12 -26 -49 -45 -82 -19 -33
-40 -69 -45 -80 -6 -11 -18 -33 -28 -50 -40 -65 -163 -298 -167 -315 -1 -3 -9
-23 -19 -45 -31 -69 -85 -211 -90 -236 -6 -28 -22 -103 -30 -139 -3 -13 -8
-40 -11 -60 -3 -20 -7 -47 -10 -60 -12 -64 -19 -168 -19 -305 0 -166 5 -227
29 -328 24 -105 40 -150 98 -277 15 -32 108 -191 124 -210 7 -8 26 -33 43 -55
76 -97 139 -155 326 -304 5 -4 21 -14 35 -21 13 -7 26 -16 29 -19 3 -3 19 -13
36 -22 77 -40 181 -92 199 -99 11 -4 44 -18 74 -30 29 -12 61 -23 70 -25 9 -2
48 -13 86 -25 39 -11 88 -23 109 -27 l40 -5 -40 40 c-52 54 -57 61 -97 124
-34 53 -97 171 -98 185 0 5 -5 14 -11 20 -6 7 -7 13 -3 13 4 0 3 6 -2 13 -15
18 -56 155 -69 224 -2 13 -6 35 -9 50 -12 62 -19 154 -19 253 0 179 19 303 74
485 5 17 11 44 14 60 8 47 16 88 22 115 40 165 14 334 -77 520 -35 71 -119
209 -153 251 -12 15 -30 39 -41 54 -28 39 -162 218 -174 231 -32 37 -115 237
-103 248 3 3 3 6 0 6 -3 0 -13 -11 -22 -25z"/>
<path d="M4735 3203 c-5 -10 -10 -26 -12 -36 -14 -74 -77 -180 -207 -351 -124
-162 -187 -256 -239 -357 -37 -71 -66 -138 -68 -159 -1 -3 -5 -12 -10 -21 -8
-16 -12 -30 -27 -104 -9 -43 -8 -147 1 -205 15 -89 48 -242 67 -305 63 -215
72 -490 25 -720 -30 -144 -89 -301 -153 -405 -12 -19 -25 -42 -29 -50 -3 -8
-9 -17 -12 -20 -3 -3 -32 -37 -63 -76 l-57 -72 77 20 c132 33 252 77 382 140
69 33 127 63 130 67 3 4 12 11 20 15 96 45 290 215 390 341 147 184 238 391
286 650 15 82 7 454 -12 535 -3 13 -7 39 -10 57 -15 117 -74 309 -136 443 -38
80 -120 245 -128 255 -7 10 -34 57 -98 175 -19 36 -39 70 -43 76 -5 6 -22 37
-38 68 -23 46 -30 54 -36 39z"/>
</g>
</svg>
